<svg id="Capa_1" enable-background="new 0 0 512 512" height="512" viewBox="0 0 512 512" width="512" xmlns="http://www.w3.org/2000/svg" xmlns:xlink="http://www.w3.org/1999/xlink"><linearGradient id="SVGID_1_" gradientUnits="userSpaceOnUse" x1="256" x2="256" y1="436" y2="76"><stop offset="0" stop-color="#fd3a84"/><stop offset="1" stop-color="#ffa68d"/></linearGradient><linearGradient id="SVGID_2_" gradientUnits="userSpaceOnUse" x1="256" x2="256" y1="346" y2="196.013"><stop offset="0" stop-color="#ffc2cc"/><stop offset="1" stop-color="#fff2f4"/></linearGradient><g id="Heart_Beat_2_"><g><path d="m256 436c-2.578 0-5.127-.659-7.441-1.978-8.877-5.068-217.559-125.61-217.559-238.022 0-66.167 53.818-120 120-120 45.117 0 84.521 25.034 105 61.948 20.479-36.914 59.883-61.948 105-61.948 66.182 0 120 53.833 120 120 0 112.412-208.682 232.954-217.559 238.022-2.314 1.319-4.863 1.978-7.441 1.978z" fill="url(#SVGID_1_)"/></g><g><path d="m226 346c-.527 0-1.084-.029-1.641-.088-6.24-.688-11.396-5.186-12.92-11.279l-20.156-80.654-11.865 23.73c-2.549 5.083-7.734 8.291-13.418 8.291h-151c-8.291 0-15-6.709-15-15s6.709-15 15-15h141.742l25.84-51.709c2.783-5.596 8.525-8.818 15.059-8.203 6.24.688 11.396 5.186 12.92 11.279l20.156 80.654 11.865-23.73c2.549-5.083 7.734-8.291 13.418-8.291h20.742l25.84-51.709c5.098-10.166 21.738-10.166 26.836 0l25.84 51.709h141.742c8.291 0 15 6.709 15 15s-6.709 15-15 15h-151c-5.684 0-10.869-3.208-13.418-8.291l-16.582-33.164-16.582 33.164c-2.549 5.083-7.734 8.291-13.418 8.291h-20.742l-25.84 51.709c-2.549 5.112-7.793 8.291-13.418 8.291z" fill="url(#SVGID_2_)"/></g></g></svg>